<?xml version="1.0" encoding="UTF-8"?>
<svg version="1.1" xmlns="http://www.w3.org/2000/svg" width="976" height="255">
<path d="M0 0 C9.57034647 -0.3957293 19.13783959 -0.69681226 28.71461105 -0.88080692 C33.16312271 -0.96917335 37.60600181 -1.08871605 42.05126953 -1.2824707 C70.69082244 -2.49842026 70.69082244 -2.49842026 77.72415161 1.57943726 C81.82478424 5.38640363 84.13619447 9.80332701 86.16253662 14.96517944 C87.25409325 17.61738122 88.78980368 19.71960766 90.55859375 21.96484375 C91.03949463 22.62943604 91.52039551 23.29402832 92.01586914 23.97875977 C92.48500732 24.62514404 92.95414551 25.27152832 93.4375 25.9375 C93.96915771 26.67218506 94.50081543 27.40687012 95.04858398 28.16381836 C96.69811976 30.44322534 98.34887621 32.72174313 100 35 C106.37884771 43.80167414 112.74544116 52.60939255 119 61.5 C123.25478428 67.54772531 127.54704612 73.56689417 131.875 79.5625 C132.39835938 80.28824219 132.92171875 81.01398438 133.4609375 81.76171875 C136.92212624 86.54734196 140.44155321 91.28628533 144 96 C148.07192694 92.82191068 151.41286212 89.48724177 154.7578125 85.5625 C157.72020193 82.17691208 160.79642907 78.90479004 163.875 75.625 C168.55101796 70.63675775 173.17711607 65.61300351 177.734375 60.515625 C180.9300606 56.96731202 184.17375265 53.46422274 187.41625977 49.95874023 C190.80702272 46.29289082 194.18959077 42.61978393 197.5625 38.9375 C198.01222168 38.44652832 198.46194336 37.95555664 198.92529297 37.44970703 C199.83062602 36.46115485 200.73589963 35.47254823 201.64111328 34.48388672 C203.46787183 32.48909001 205.29564884 30.49522812 207.12353516 28.50146484 C208.03869203 27.50320043 208.95373174 26.50482861 209.86865234 25.50634766 C212.19549673 22.96714242 214.52400256 20.42949397 216.85546875 17.89453125 C217.32984375 17.37826172 217.80421875 16.86199219 218.29296875 16.33007812 C222.12904037 12.15552959 222.12904037 12.15552959 223.55680847 10.66021729 C225.09151244 8.96917576 225.09151244 8.96917576 226.47309875 6.76116943 C229.32770299 2.78781874 231.48056843 0.36008488 236.34379578 -0.79243469 C240.47753122 -1.04143414 244.52134219 -1.01442644 248.65625 -0.87890625 C250.16935419 -0.86209509 251.68250777 -0.84929575 253.19567871 -0.84031677 C257.15570172 -0.80614553 261.11269701 -0.71792226 265.0715332 -0.61798096 C269.12018884 -0.52548503 273.16933965 -0.48471865 277.21875 -0.43945312 C285.14721441 -0.34327276 293.07322938 -0.18991979 301 0 C298.75691997 3.40236743 296.60893671 6.63454878 293.79296875 9.5859375 C292.91838013 10.51079956 292.91838013 10.51079956 292.02612305 11.4543457 C291.41937744 12.08816162 290.81263184 12.72197754 290.1875 13.375 C288.92619486 14.7087958 287.66576713 16.04342189 286.40625 17.37890625 C285.81070312 18.00941895 285.21515625 18.63993164 284.6015625 19.28955078 C282.21272716 21.84079779 279.91703246 24.46536029 277.63671875 27.11328125 C275.62126228 29.43658787 273.56151538 31.71748465 271.5 34 C268.82951656 36.95869751 266.17701942 39.92926472 263.5625 42.9375 C259.91062947 47.13164365 256.15733816 51.23094292 252.41015625 55.33984375 C249.82761116 58.19027034 247.29344897 61.07825892 244.76953125 63.98046875 C240.46130252 68.89736556 236.05313844 73.72639032 231.671875 78.578125 C228.25694362 82.36474959 224.85013474 86.15583617 221.5 90 C216.62856797 95.58979989 211.6410485 101.07534898 206.671875 106.578125 C202.6866468 110.99711954 198.73042571 115.43683013 194.82421875 119.92578125 C191.95736798 123.18551949 189.03411516 126.39410784 186.11328125 129.60546875 C183.99127508 132.00988609 181.98279012 134.48011097 180 137 C182.71116303 143.04089238 187.8723513 147.06377171 192.8125 151.3125 C196.02333755 154.07618029 199.02267165 156.98619596 202 160 C204.89591958 162.93118191 207.80242571 165.76403174 210.9375 168.4375 C214.28925096 171.30172355 217.40556417 174.36334093 220.5 177.5 C223.57390527 180.61579123 226.66702145 183.65877238 230 186.5 C233.85043015 189.7823339 237.38145579 193.35254849 240.93139648 196.95092773 C244.15366448 200.20000607 247.49340645 203.22443863 250.97265625 206.19140625 C254.31879936 209.17650116 257.41593952 212.40882768 260.56640625 215.59765625 C262.63242365 217.63714373 264.73005549 219.555078 266.9375 221.4375 C270.28925096 224.30172355 273.40556417 227.36334093 276.5 230.5 C279.57390527 233.61579123 282.66702145 236.65877238 286 239.5 C289.4866566 242.47818585 292.75312269 245.64057874 296 248.875 C296.74056641 249.60879883 296.74056641 249.60879883 297.49609375 250.35742188 C301 253.87621725 301 253.87621725 301 255 C291.49002816 255.18579265 281.98068586 255.32772232 272.46929169 255.41449738 C268.05211549 255.45615719 263.63618553 255.51261081 259.21972656 255.60351562 C254.9531897 255.69077968 250.68784719 255.73834333 246.42048645 255.75901794 C244.79691268 255.77374032 243.1734005 255.80249204 241.55033875 255.84584045 C228.83831251 256.17168454 228.83831251 256.17168454 224.30834961 253.28442383 C222.31261241 251.29281053 220.68333542 249.25504436 219 247 C217.73623719 245.84374253 216.44726211 244.71387588 215.125 243.625 C211.93317491 240.88378551 208.95697023 237.99314112 206 235 C203.08373397 232.04816975 200.15394165 229.19611141 197 226.5 C192.92376781 223.01547893 189.20449127 219.21918019 185.4375 215.40625 C183.34999365 213.34550655 181.22830777 211.40484374 179 209.5 C174.92376781 206.01547893 171.20449127 202.21918019 167.4375 198.40625 C164.75324984 195.7564133 161.95090018 193.30787861 159.078125 190.8671875 C155.63569624 187.7741782 152.48066287 184.39522105 149.296875 181.0390625 C147.06671992 179.05923095 145.90857612 178.36023649 143 178 C136.73606866 184.92858961 136.73606866 184.92858961 130.5625 191.9375 C126.91062947 196.13164365 123.15733816 200.23094292 119.41015625 204.33984375 C116.82761116 207.19027034 114.29344897 210.07825892 111.76953125 212.98046875 C107.46130252 217.89736556 103.05313844 222.72639032 98.671875 227.578125 C94.69034057 231.99302372 90.73650643 236.42749261 86.8359375 240.9140625 C83.87309149 244.28035988 80.84447831 247.58723222 77.8203125 250.8984375 C75.96323333 252.86723421 75.96323333 252.86723421 75 255 C50.25 255 25.5 255 0 255 C7.1019102 246.7144381 14.28053438 238.59448086 21.73974609 230.63525391 C25.79128575 226.30823108 29.78340526 221.93485782 33.734375 217.515625 C36.9300606 213.96731202 40.17375265 210.46422274 43.41625977 206.95874023 C46.80702272 203.29289082 50.18959077 199.61978393 53.5625 195.9375 C54.01222168 195.44652832 54.46194336 194.95555664 54.92529297 194.44970703 C55.83062602 193.46115485 56.73589963 192.47254823 57.64111328 191.48388672 C59.92642496 188.98835593 62.2132958 186.49425473 64.5 184 C65.41667404 183.00000675 66.3333407 182.00000676 67.25 181 C72.75 175 78.25 169 83.75 163 C84.20366943 162.50508057 84.65733887 162.01016113 85.12475586 161.50024414 C86.04220685 160.49940332 86.95968736 159.49858955 87.87719727 158.49780273 C90.15710551 156.01088739 92.43651293 153.52351685 94.71484375 151.03515625 C99.46607573 145.84702938 104.22611223 140.66729362 109 135.5 C118.04552551 125.70809108 127.04162535 115.87170135 136 106 C132.23090183 102.02988326 128.22601008 98.78874368 123.8125 95.5625 C117.83515137 91.13752945 111.9221899 86.64217291 106.0625 82.0625 C98.06113505 75.814611 90.00745641 69.63823696 81.93701172 63.47998047 C76.94715675 59.66746461 71.97529632 55.8314782 67 52 C64.83355349 50.33304708 62.66678699 48.66651031 60.5 47 C57.2962603 44.53595289 54.09284059 42.07149659 50.890625 39.60546875 C44.04146175 34.33229456 37.18049224 29.07483949 30.31103516 23.828125 C27.00620639 21.30305376 23.70394113 18.77499868 20.4140625 16.23046875 C14.33775525 11.53220174 8.21518444 6.93858298 1.94921875 2.49609375 C1.30597656 2.00238281 0.66273438 1.50867188 0 1 C0 0.67 0 0.34 0 0 Z " fill="#0D2E33" transform="translate(473,0)"/>
<path d="M0 0 C1.0209375 0.35707031 2.041875 0.71414063 3.09375 1.08203125 C17.80611689 6.67826758 30.05172942 15.86526253 41 27 C41.82113281 27.82242188 42.64226562 28.64484375 43.48828125 29.4921875 C60.87328085 47.80799019 70.28598471 72.24640407 73.875 96.9375 C73.99520508 97.73293213 74.11541016 98.52836426 74.23925781 99.34790039 C75.49698103 109.28410848 75 118.83653509 75 129 C9.66 129 -55.68 129 -123 129 C-115.24459617 156.14391339 -105.91890686 175.6844093 -81.51171875 190.11328125 C-58.69054278 202.37426901 -32.43324755 204.43405925 -7.47314453 197.76269531 C-1.52962796 195.92976878 4.12205743 193.39759361 9.765625 190.8046875 C19.96588912 186.24729614 30.89942725 185.31691397 41.55078125 188.953125 C48.27425499 191.82695429 54.15350654 195.50730741 59 201 C55.98565336 212.05260434 41.87686646 220.25963312 32.4609375 225.6875 C12.46671368 236.75347268 -9.14542925 242.32173532 -32 243 C-32.84433594 243.03996094 -33.68867188 243.07992187 -34.55859375 243.12109375 C-71.59280839 244.10328041 -106.10508993 232.05788328 -133.7421875 207.5703125 C-148.81318974 193.25051286 -159.64818083 174.00584227 -165 154 C-165.29197266 152.97688721 -165.29197266 152.97688721 -165.58984375 151.93310547 C-174.40268014 120.14497421 -170.22293082 81.49903876 -154.15234375 52.6875 C-150.19430608 46.09839683 -145.94942027 39.8800805 -141 34 C-140.33484375 33.20078125 -139.6696875 32.4015625 -138.984375 31.578125 C-105.03623304 -7.74310418 -47.5845453 -17.2235365 0 0 Z M-104.56152344 55.34082031 C-114.64209083 66.96803281 -123 83.44378729 -123 99 C-72.51 99 -22.02 99 30 99 C27.85426631 77.54266305 18.79515204 60.894242 2.3125 46.8125 C-10.04120883 37.37563909 -25.42648996 31.67202764 -41 31 C-41.73863281 30.96003906 -42.47726562 30.92007813 -43.23828125 30.87890625 C-66.32676518 30.23650981 -88.72403443 38.37428154 -104.56152344 55.34082031 Z " fill="#0C2D34" transform="translate(434,10)"/>
<path d="M0 0 C2.45279734 2.16620342 4.83409998 4.38723432 7.19921875 6.6484375 C8.19115234 7.545625 8.19115234 7.545625 9.203125 8.4609375 C32.1668033 29.98648645 43.83311539 61.6857786 45.12475586 92.60424805 C45.64445682 112.55249307 41.94874418 132.62489192 33.19921875 150.6484375 C32.9170752 151.23044922 32.63493164 151.81246094 32.34423828 152.41210938 C17.68140917 182.25007396 -7.54549719 205.20211514 -38.80078125 216.6484375 C-70.54217835 227.20951322 -105.5173374 226.10656904 -135.8984375 211.6484375 C-166.8911923 196.12478461 -190.14880635 169.80745962 -201.61328125 137.0859375 C-203.93272169 129.69028062 -205.52321365 122.287041 -206.80078125 114.6484375 C-206.93355469 113.88660156 -207.06632813 113.12476563 -207.203125 112.33984375 C-211.64100941 81.15306704 -202.53695607 47.36474769 -183.94091797 22.11181641 C-174.05178604 9.34941701 -162.54231087 -1.84985857 -148.80078125 -10.3515625 C-147.86234375 -10.96257813 -146.92390625 -11.57359375 -145.95703125 -12.203125 C-100.88564118 -40.31083254 -40.02790129 -33.60780554 0 0 Z M-149.80078125 39.6484375 C-166.19636289 59.69954618 -171.31546115 83.27032661 -169.80078125 108.6484375 C-167.06051973 131.94734401 -153.98799223 153.3035304 -135.73828125 167.7734375 C-115.78108325 182.93405573 -91.37882415 188.41465128 -66.62109375 185.1875 C-42.66881175 180.88317871 -21.99594454 167.37893206 -8.04394531 147.49707031 C5.58833143 127.22535007 10.44298293 102.76994811 6.01171875 78.7109375 C0.49329581 54.90951519 -13.48147286 33.79198701 -34.32446289 20.72387695 C-40.83756081 16.84781095 -47.63417948 14.06832901 -54.80078125 11.6484375 C-55.765 11.308125 -56.72921875 10.9678125 -57.72265625 10.6171875 C-90.89041241 0.9357884 -127.44505405 14.43380179 -149.80078125 39.6484375 Z " fill="#0C2D34" transform="translate(930.80078125,30.3515625)"/>
<path d="M0 0 C2.51886266 2.21533774 4.94973588 4.49904256 7.37109375 6.8203125 C8.25410156 7.62855469 9.13710937 8.43679687 10.046875 9.26953125 C24.40550428 22.85640959 34.22065164 40.12326516 40.68359375 58.6953125 C40.91409424 59.34097168 41.14459473 59.98663086 41.38208008 60.65185547 C47.1908237 78.43859961 46.78381788 96.83268454 46.67527556 115.30968904 C46.65627178 119.10124837 46.65473996 122.89281812 46.65119934 126.68441772 C46.64194739 133.8343695 46.6174285 140.98418045 46.58715087 148.13407075 C46.55339091 156.28667098 46.53706708 164.43927863 46.52206457 172.59193158 C46.4908711 189.3348202 46.43594706 206.07751528 46.37109375 222.8203125 C32.18109375 222.8203125 17.99109375 222.8203125 3.37109375 222.8203125 C3.34921997 216.8946936 3.34921997 216.8946936 3.3269043 210.84936523 C3.27643578 197.7576157 3.20996659 184.6659877 3.13537884 171.57435513 C3.09056885 163.64146193 3.05112085 155.70861214 3.0246582 147.77563477 C3.00155744 140.85468092 2.96802685 133.93386619 2.92239219 127.01302296 C2.89862128 123.35443529 2.87978766 119.695984 2.87347984 116.03732109 C2.83649118 97.11963845 2.7800094 80.16370102 -5.62890625 62.8203125 C-6.08265625 61.88445312 -6.53640625 60.94859375 -7.00390625 59.984375 C-16.5916571 41.38205405 -32.70733684 27.0052383 -52.59130859 20.14306641 C-75.0779421 13.17436529 -97.66303788 14.71214096 -118.7109375 25.3828125 C-139.90934505 37.13854043 -153.11531135 54.74788467 -159.90234375 77.8828125 C-161.13755086 82.87676814 -161.75433348 87.63732705 -161.78712463 92.78085327 C-161.80180786 94.53495514 -161.80180786 94.53495514 -161.81678772 96.32449341 C-161.82254318 97.59332367 -161.82829865 98.86215393 -161.83422852 100.16943359 C-161.843817 101.52991019 -161.85382764 102.89038386 -161.86422729 104.25085449 C-161.89117736 107.93218123 -161.91224027 111.61352065 -161.93222928 115.29489088 C-161.95415016 119.14661926 -161.9815089 122.99830897 -162.00828552 126.8500061 C-162.05813011 134.13839116 -162.10309937 141.42679777 -162.14630789 148.71522486 C-162.19575078 157.01511069 -162.25064268 165.31495769 -162.30598748 173.61480594 C-162.41968107 190.68327221 -162.52654742 207.75177457 -162.62890625 224.8203125 C-166.03720562 223.20214075 -168.42421383 221.34265286 -171.19140625 218.7578125 C-174.70932833 215.52832912 -178.28073 212.43570732 -182.00390625 209.4453125 C-187.13810291 205.29425988 -191.98027558 200.90034439 -196.8046875 196.3984375 C-199.55529832 193.74868231 -199.55529832 193.74868231 -202.75888062 191.77723694 C-204.70517408 190.14553641 -205.52165441 189.22146437 -206.18274307 186.74880791 C-206.39707406 184.12605247 -206.4166762 181.56270147 -206.37353516 178.93139648 C-206.38083649 177.9386673 -206.38813782 176.94593811 -206.3956604 175.92312622 C-206.41188302 172.63685819 -206.38461774 169.35256179 -206.35546875 166.06640625 C-206.35443042 163.76733908 -206.35547019 161.46827013 -206.35848999 159.16920471 C-206.35831041 154.33950418 -206.33744946 149.51047029 -206.30126953 144.6809082 C-206.25627599 138.54524151 -206.25473563 132.41056486 -206.26830482 126.27477932 C-206.27505683 121.51719157 -206.26158364 116.75982158 -206.24204636 112.00227547 C-206.23443708 109.74408173 -206.2320058 107.4858635 -206.23521805 105.22765923 C-206.23936924 87.7479297 -204.90074063 70.50549067 -198.44140625 54.0703125 C-198.14661377 53.29993652 -197.85182129 52.52956055 -197.5480957 51.73583984 C-192.25613682 38.39423722 -184.7375067 26.84171905 -175.62890625 15.8203125 C-174.99984375 15.04945312 -174.37078125 14.27859375 -173.72265625 13.484375 C-153.48735418 -10.52205154 -122.84323081 -24.85043828 -91.91723633 -27.99658203 C-58.75741419 -30.64993385 -25.75297117 -21.35238918 0 0 Z " fill="#0C2D34" transform="translate(205.62890625,30.1796875)"/>
<path d="M0 0 C9.57034647 -0.3957293 19.13783959 -0.69681226 28.71461105 -0.88080692 C33.16312271 -0.96917335 37.60600181 -1.08871605 42.05126953 -1.2824707 C70.69082244 -2.49842026 70.69082244 -2.49842026 77.72415161 1.57943726 C81.82478424 5.38640363 84.13619447 9.80332701 86.16253662 14.96517944 C87.25409325 17.61738122 88.78980368 19.71960766 90.55859375 21.96484375 C91.03949463 22.62943604 91.52039551 23.29402832 92.01586914 23.97875977 C92.48500732 24.62514404 92.95414551 25.27152832 93.4375 25.9375 C93.96915771 26.67218506 94.50081543 27.40687012 95.04858398 28.16381836 C96.69811976 30.44322534 98.34887621 32.72174313 100 35 C106.37884771 43.80167414 112.74544116 52.60939255 119 61.5 C123.25478428 67.54772531 127.54704612 73.56689417 131.875 79.5625 C132.39835938 80.28824219 132.92171875 81.01398438 133.4609375 81.76171875 C135.97609493 85.23930887 138.5215585 88.6837535 141.1328125 92.08984375 C143.31850239 94.98639617 145.1482328 97.94326938 146.89648438 101.12939453 C149.23042155 105.08572786 152.03625609 108.73666902 154.75 112.4375 C155.35199219 113.26443359 155.95398438 114.09136719 156.57421875 114.94335938 C158.04632001 116.96457777 159.52162606 118.98336762 161 121 C160.67 121.66 160.34 122.32 160 123 C159.19820312 122.35675781 158.39640625 121.71351562 157.5703125 121.05078125 C150.91798417 115.75101339 144.17241499 110.62992787 137.25 105.6875 C128.72703516 99.59395718 120.4670666 93.20170869 112.22460938 86.73632812 C108.56603229 83.88077499 104.87756811 81.06467028 101.1875 78.25 C99.7799416 77.17578953 98.37238937 76.10157097 96.96484375 75.02734375 C96.29565918 74.51671387 95.62647461 74.00608398 94.93701172 73.47998047 C89.94715675 69.66746461 84.97529632 65.8314782 80 62 C77.83355349 60.33304708 75.66677503 58.66652587 73.5 57 C72.41666062 56.16667453 71.33332728 55.3333412 70.25 54.5 C69.71375 54.0875 69.1775 53.675 68.625 53.25 C63.75 49.5 63.75 49.5 62.12597656 48.25073242 C61.03941221 47.41492624 59.95282355 46.57915165 58.86621094 45.7434082 C56.20711452 43.69816364 53.5485006 41.65230009 50.890625 39.60546875 C44.04146175 34.33229456 37.18049224 29.07483949 30.31103516 23.828125 C27.00620639 21.30305376 23.70394113 18.77499868 20.4140625 16.23046875 C14.33775525 11.53220174 8.21518444 6.93858298 1.94921875 2.49609375 C1.30597656 2.00238281 0.66273438 1.50867188 0 1 C0 0.67 0 0.34 0 0 Z " fill="#B2CC1C" transform="translate(473,0)"/>
</svg>
